<?xml version="1.0" standalone="no"?><!DOCTYPE svg PUBLIC "-//W3C//DTD SVG 1.1//EN" "http://www.w3.org/Graphics/SVG/1.1/DTD/svg11.dtd"><svg t="1754645981465" class="icon" viewBox="0 0 1024 1024" version="1.1" xmlns="http://www.w3.org/2000/svg" p-id="3081" xmlns:xlink="http://www.w3.org/1999/xlink" width="200" height="200"><path d="M738.112 64C825.6 64 896 135.808 896 224v230.4a44.8 44.8 0 0 1-89.6 0V224c0-39.04-30.72-70.4-68.288-70.4H285.888C248.32 153.6 217.6 184.96 217.6 224v576c0 39.04 30.72 70.4 68.288 70.4H512A44.8 44.8 0 0 1 512 960H285.888C198.4 960 128 888.192 128 800v-576C128 135.808 198.464 64 285.888 64h452.224zM704 576a44.8 44.8 0 0 1 44.8 44.8v102.336l102.4 0.064a44.8 44.8 0 0 1 0 89.6l-102.464-0.064 0.064 102.464a44.8 44.8 0 0 1-89.6 0l-0.064-102.464L556.8 812.8a44.8 44.8 0 0 1 0-89.6l102.336-0.064L659.2 620.8A44.8 44.8 0 0 1 704 576zM467.2 467.2a44.8 44.8 0 0 1 0 89.6H364.8a44.8 44.8 0 0 1 0-89.6h102.4z m192-192a44.8 44.8 0 0 1 0 89.6H364.8a44.8 44.8 0 0 1 0-89.6h294.4z" fill="#666666" p-id="3082"></path></svg>