<?xml version="1.0" standalone="no"?><!DOCTYPE svg PUBLIC "-//W3C//DTD SVG 1.1//EN" "http://www.w3.org/Graphics/SVG/1.1/DTD/svg11.dtd"><svg t="1752929429442" class="icon" viewBox="0 0 1024 1024" version="1.1" xmlns="http://www.w3.org/2000/svg" p-id="10875" xmlns:xlink="http://www.w3.org/1999/xlink" width="200" height="200"><path d="M460.288 512l-157.001143 157.001143a36.571429 36.571429 0 0 0 51.712 51.712L512 563.712l157.001143 157.001143a36.571429 36.571429 0 0 0 51.712-51.712L563.712 512l157.001143-157.001143a36.571429 36.571429 0 1 0-51.712-51.712L512 460.288 354.998857 303.286857a36.571429 36.571429 0 0 0-51.712 51.712L460.288 512zM512 1024C229.229714 1024 0 794.770286 0 512S229.229714 0 512 0s512 229.229714 512 512-229.229714 512-512 512z" fill="#CCCCCC" p-id="10876"></path></svg>