<?xml version="1.0" standalone="no"?><!DOCTYPE svg PUBLIC "-//W3C//DTD SVG 1.1//EN" "http://www.w3.org/Graphics/SVG/1.1/DTD/svg11.dtd"><svg t="1753587787478" class="icon" viewBox="0 0 1264 1024" version="1.1" xmlns="http://www.w3.org/2000/svg" p-id="16984" xmlns:xlink="http://www.w3.org/1999/xlink" width="246.875" height="200"><path d="M249.046914 880.134321c-64.474074 42.982716-137.797531 8.849383-189.62963 13.906173-13.906173 1.264198-29.076543 5.05679-40.454321 15.17037-7.585185 6.320988-12.641975 5.05679-12.641975 5.05679s0 29.076543 1.264197 32.869136c7.585185 21.491358 36.661728 25.283951 59.417284 26.548148 106.192593 1.264198 233.876543-16.434568 331.219753 22.755556 97.34321 39.190123 254.103704-16.434568 371.674074-15.170371 73.323457 0 159.288889 6.320988 231.348148 16.434568 72.059259 8.849383 251.575309-11.377778 251.575309-64.474074v-24.019753s-131.476543-1.264198-182.044444-37.925926c-35.397531-26.548148-242.725926-32.869136-391.901235-35.397531-94.814815-1.264198-131.476543 8.849383-207.328395 41.718519-78.380247 35.397531-165.609877-35.397531-222.498765 2.528395" fill="#FFD3AD" opacity=".6" p-id="16985"></path><path d="M249.046914 857.378765c-64.474074 42.982716-137.797531 8.849383-189.62963 13.906173-13.906173 1.264198-29.076543 5.05679-40.454321 15.170371-11.377778 8.849383-16.434568 25.283951-12.641975 39.190123 7.585185 21.491358 36.661728 25.283951 59.417284 26.548148 106.192593 1.264198 233.876543-16.434568 331.219753 22.755556 97.34321 39.190123 254.103704-16.434568 371.674074-15.170371 73.323457 0 159.288889 6.320988 231.348148 16.434568 72.059259 8.849383 251.575309-11.377778 251.575309-64.474074s-123.891358-18.962963-182.044445-61.945679c-35.397531-26.548148-242.725926-32.869136-391.901234-35.397531-94.814815-1.264198-131.476543 8.849383-207.328396 41.718519-77.116049 34.133333-164.345679-36.661728-221.234567 1.264197" fill="#AAD78F" opacity=".6" p-id="16986"></path><path d="M638.419753 921.85284c-5.05679-3.792593-8.849383-2.528395-12.641975 0v-1.264198c1.264198-6.320988 2.528395-18.962963-5.05679-22.755556-11.377778-6.320988-15.17037 13.906173-15.170371 30.340741-8.849383-8.849383-18.962963-17.698765-26.548148-7.585185-2.528395 3.792593-2.528395 8.849383-1.264197 12.641975 0 1.264198 1.264198 2.528395 1.264197 3.792593 7.585185 8.849383 20.22716 15.17037 29.076543 22.755555 2.528395 2.528395 6.320988 2.528395 8.849383 0 8.849383-7.585185 35.397531-26.548148 21.491358-37.925925M1247.762963 859.90716c-5.05679-10.11358-13.906173-2.528395-20.227161 5.056791-3.792593-11.377778-10.11358-25.283951-20.22716-22.755556-7.585185 2.528395-6.320988 12.641975-3.792593 22.755556-7.585185-3.792593-15.17037-6.320988-18.962963 1.264197-8.849383 15.17037 22.755556 29.076543 31.604939 32.869136 2.528395 1.264198 5.05679 0 6.320987-2.528395 7.585185-6.320988 13.906173-13.906173 20.227161-21.491358 2.528395-2.528395 7.585185-8.849383 5.05679-15.170371M565.096296 942.08c-3.792593-7.585185-8.849383 1.264198-11.377777 7.585185-1.264198-2.528395-2.528395-3.792593-3.792593-6.320987-1.264198-2.528395-5.05679-7.585185-7.585185-10.113581-6.320988-3.792593-7.585185 5.05679-7.585185 8.849383 1.264198 7.585185 5.05679 18.962963 11.377777 22.755556 3.792593 2.528395 12.641975 1.264198 17.698766-11.377778 0-1.264198 2.528395-7.585185 1.264197-11.377778M147.911111 857.378765c-6.320988-8.849383-13.906173 2.528395-17.698765 12.641976-1.264198-6.320988-5.05679-12.641975-8.849383-16.434568-5.05679-3.792593-12.641975-6.320988-16.434568 1.264197-2.528395 7.585185 3.792593 17.698765 7.585185 22.755556 2.528395 5.05679 10.11358 18.962963 17.698766 12.641975l1.264197-1.264197c6.320988-3.792593 10.11358-10.11358 13.906173-15.170371 1.264198-6.320988 5.05679-11.377778 2.528395-16.434568M418.449383 878.870123c-2.528395-8.849383-10.11358-1.264198-16.434568 5.056791 0-5.05679-1.264198-8.849383-2.528395-13.906173-1.264198-3.792593-5.05679-11.377778-10.11358-11.377778-7.585185 0-6.320988 13.906173-3.792593 25.283951-5.05679-3.792593-11.377778-6.320988-18.962963-3.792593-2.528395 0-2.528395 2.528395-1.264198 5.05679 6.320988 10.11358 13.906173 16.434568 24.019754 21.491358 0 1.264198 1.264198 1.264198 2.528395 1.264198 5.05679 0 10.11358-5.05679 13.906172-8.849383 2.528395-2.528395 6.320988-6.320988 7.585186-10.11358 2.528395-2.528395 5.05679-6.320988 5.05679-10.113581" fill="#78B870" opacity=".6" p-id="16987"></path><path d="M632.098765 847.012346h37.925926V353.975309h-37.925926z" fill="#C39467" p-id="16988"></path><path d="M769.896296 504.414815c0 61.945679-54.360494 112.51358-120.098765 112.51358s-120.098765-50.567901-120.098766-112.51358S584.059259 10.11358 649.797531 10.11358s120.098765 432.355556 120.098765 494.301235" fill="#8FC08A" p-id="16989"></path><path d="M675.081481 616.928395c56.888889-7.585185 94.814815-56.888889 94.814815-111.249383 0-61.945679-44.246914-514.528395-126.419753-495.565432v606.814815h31.604938z" fill="#ACD494" p-id="16990"></path><path d="M394.42963 579.002469l-18.962963-13.906173-91.022223 68.266667v-97.34321h-16.434567v97.34321l-79.644445-75.851852-17.698765 13.906173 97.34321 89.758025v216.177777h16.434567V661.175309z" fill="#C39467" p-id="16991"></path><path d="M403.279012 420.977778c0 67.002469-54.360494 122.62716-122.62716 122.62716s-122.62716-54.360494-122.627161-122.62716c0-67.002469 54.360494-122.62716 122.627161-122.627161s122.62716 55.624691 122.62716 122.627161" fill="#8FC08A" p-id="16992"></path><path d="M491.77284 557.511111c0 36.661728-30.340741 65.738272-67.00247 65.738272s-67.002469-29.076543-67.002469-65.738272c0-36.661728 30.340741-65.738272 67.002469-65.738271 37.925926 0 67.002469 29.076543 67.00247 65.738271" fill="#ACD494" p-id="16993"></path><path d="M231.348148 572.681481c0 29.076543-24.019753 51.832099-53.096296 51.832099S126.419753 601.758025 126.419753 572.681481s24.019753-51.832099 53.096296-51.832098 51.832099 22.755556 51.832099 51.832098" fill="#8FC08A" p-id="16994"></path><path d="M284.444444 298.350617v243.990124c65.738272 0 122.62716-54.360494 122.627161-122.627161s-56.888889-120.098765-122.627161-121.362963" fill="#ACD494" p-id="16995"></path><path d="M1025.264198 632.098765s-113.777778 108.720988-98.607408 252.839507c0 0 107.45679-108.720988 98.607408-252.839507" fill="#8FC08A" p-id="16996"></path><path d="M1083.417284 743.348148S1035.377778 855.861728 926.65679 884.938272c0 0 49.303704-107.45679 156.760494-141.590124" fill="#8FC08A" p-id="16997"></path><path d="M931.71358 571.417284s73.323457 166.874074-5.05679 313.520988c0 0-67.002469-163.081481 5.05679-313.520988" fill="#ACD494" p-id="16998"></path><path d="M1063.190123 686.459259S1039.17037 824.25679 925.392593 884.938272c1.264198 0 27.812346-132.740741 137.79753-198.479013" fill="#ACD494" p-id="16999"></path><path d="M1131.45679 757.254321s-139.061728 17.698765-204.8 127.683951c0 0 134.004938-20.22716 204.8-127.683951" fill="#8FC08A" p-id="17000"></path><path d="M849.540741 657.382716s97.34321 101.135802 78.380247 227.555556c0 0-91.022222-101.135802-78.380247-227.555556" fill="#8FC08A" p-id="17001"></path><path d="M793.916049 721.85679s109.985185 54.360494 134.004939 163.081482c0 0-106.192593-54.360494-134.004939-163.081482" fill="#ACD494" p-id="17002"></path><path d="M744.612346 771.160494s123.891358 16.434568 183.308642 113.777778c0 0-120.098765-18.962963-183.308642-113.777778" fill="#8FC08A" p-id="17003"></path></svg>