<?xml version="1.0" standalone="no"?><!DOCTYPE svg PUBLIC "-//W3C//DTD SVG 1.1//EN" "http://www.w3.org/Graphics/SVG/1.1/DTD/svg11.dtd"><svg t="1752414965727" class="icon" viewBox="0 0 1024 1024" version="1.1" xmlns="http://www.w3.org/2000/svg" p-id="12132" xmlns:xlink="http://www.w3.org/1999/xlink" width="200" height="200"><path d="M65.5 577.6v253.2c0 70.3 57.1 127.5 127.5 127.5h637.5c70.3 0 127.5-57.1 127.5-127.5V577.7H830.4v252.9H193v-253" fill="#A6A7A8" p-id="12133"></path><path d="M670.7 401.5V527c0 12 14 18.8 23.4 11.4l255-201.3c7.4-5.8 7.4-17 0-22.6L694.2 113.1c-9.4-7.4-23.4-0.8-23.4 11.4l-0.1 277z m0 0" fill="#A7A7A7" p-id="12134"></path><path d="M319 640s-29.5-376.1 351.7-384v127.8c0.1 0-242.6-1.9-351.7 256.2z" fill="#A7A7A7" p-id="12135"></path></svg>