<?xml version="1.0" standalone="no"?><!DOCTYPE svg PUBLIC "-//W3C//DTD SVG 1.1//EN" "http://www.w3.org/Graphics/SVG/1.1/DTD/svg11.dtd"><svg t="1753878217880" class="icon" viewBox="0 0 1024 1024" version="1.1" xmlns="http://www.w3.org/2000/svg" p-id="2268" xmlns:xlink="http://www.w3.org/1999/xlink" width="200" height="200"><path d="M512 97.52381c228.912762 0 414.47619 185.563429 414.47619 414.47619s-185.563429 414.47619-414.47619 414.47619S97.52381 740.912762 97.52381 512 283.087238 97.52381 512 97.52381z m45.32419 560.761904h-68.534857v73.142857h68.534857v-73.142857z m-4.047238-362.008381c-44.27581-8.97219-92.233143-3.120762-126.268952 33.328762C396.629333 362.22781 390.095238 388.047238 390.095238 445.001143h68.266667v-16.579048c0.316952-29.232762 5.241905-59.367619 47.957333-67.779047a68.998095 68.998095 0 0 1 60.367238 15.506285c15.213714 14.652952 15.555048 47.835429-9.020952 64.365715l-38.473143 25.6-4.315429 2.852571c-19.18781 13.336381-26.087619 28.379429-26.087619 49.883429V609.52381h68.534857v-65.731048c0-14.09219 6.729143-27.355429 24.722286-38.863238 17.968762-11.483429 68.120381-34.718476 68.120381-96.134095 0-61.391238-52.638476-103.594667-96.889905-112.518096z" p-id="2269"></path></svg>