<?xml version="1.0" standalone="no"?><!DOCTYPE svg PUBLIC "-//W3C//DTD SVG 1.1//EN" "http://www.w3.org/Graphics/SVG/1.1/DTD/svg11.dtd"><svg t="1752422051313" class="icon" viewBox="0 0 1024 1024" version="1.1" xmlns="http://www.w3.org/2000/svg" p-id="17908" xmlns:xlink="http://www.w3.org/1999/xlink" width="200" height="200"><path d="M959 349.4v550.8c0 33.1-26.9 60-60 60H219c-33.1 0-60-26.9-60-60v-776c0-33.1 26.9-60 60-60h454.8L959 349.4z" fill="#E9EAEE" p-id="17909"></path><path d="M725 349.4l234.1 212.1V349.4z" fill="#D2D6DD" p-id="17910"></path><path d="M672 64.2v245.2c0 22.1 17.9 40 40 40h245.2L672 64.2z" fill="#A7ADBB" p-id="17911"></path><path d="M84 502m40 0l688 0q40 0 40 40l0 272q0 40-40 40l-688 0q-40 0-40-40l0-272q0-40 40-40Z" fill="#912650" p-id="17912"></path><path d="M64 482m40 0l688 0q40 0 40 40l0 272q0 40-40 40l-688 0q-40 0-40-40l0-272q0-40 40-40Z" fill="#C24978" p-id="17913"></path><path d="M263.26 768.98c2.893 3.267 7.607 4.807 14.14 4.62 6.533-0.187 11.153-1.727 13.86-4.62 2.707-2.893 4.06-6.207 4.06-9.94V587.4c0-3.733-1.447-7.093-4.34-10.08s-7.607-4.48-14.14-4.48c-6.907 0-11.62 1.587-14.14 4.76-2.52 3.173-3.78 6.44-3.78 9.8v67.48H173.8V587.4c0-3.733-1.353-7.093-4.06-10.08s-7.327-4.48-13.86-4.48c-6.533 0-11.247 1.587-14.14 4.76-2.893 3.173-4.34 6.44-4.34 9.8v171.64c0 3.36 1.447 6.673 4.34 9.94 2.893 3.267 7.607 4.807 14.14 4.62 6.533-0.187 11.153-1.727 13.86-4.62 2.707-2.893 4.06-6.207 4.06-9.94v-72.8h85.12v72.8c0 3.36 1.447 6.673 4.34 9.94z m125.86 4.62c6.533 0 11.2-1.493 14-4.48 2.8-2.987 4.2-6.347 4.2-10.08V608.12h35.84c3.36 0 6.627-1.213 9.8-3.64 3.173-2.427 4.76-6.627 4.76-12.6 0-5.787-1.493-9.94-4.48-12.46-2.987-2.52-6.347-3.78-10.08-3.78H335.08c-3.733 0-7.093 1.26-10.08 3.78-2.987 2.52-4.48 6.673-4.48 12.46 0 5.973 1.587 10.173 4.76 12.6 3.173 2.427 6.44 3.64 9.8 3.64h35.84v150.92c0 3.36 1.4 6.627 4.2 9.8 2.8 3.173 7.467 4.76 14 4.76z m263.06-4.06c2.147 2.893 6.207 4.247 12.18 4.06 4.293 0 7.653-0.607 10.08-1.82 2.427-1.213 4.2-2.8 5.32-4.76s1.727-4.247 1.82-6.86c0.093-2.613-0.047-5.32-0.42-8.12l-24.08-157.92c-1.12-6.907-3.873-12.18-8.26-15.82-4.387-3.64-9.287-5.46-14.7-5.46-5.6 0-10.5 1.447-14.7 4.34-4.2 2.893-7.513 8.727-9.94 17.5l-31.08 117.6-31.92-117.04c-2.613-8.96-5.973-14.933-10.08-17.92-4.107-2.987-9.147-4.48-15.12-4.48-5.973 0-10.967 1.773-14.98 5.32-4.013 3.547-6.487 8.587-7.42 15.12L474.8 752.04c-1.307 7.84-0.84 13.393 1.4 16.66 2.24 3.267 6.253 4.9 12.04 4.9 7.093 0 11.993-1.633 14.7-4.9 2.707-3.267 4.527-8.26 5.46-14.98l13.16-99.12c0.747-4.48 1.82-6.72 3.22-6.72 1.4 0 2.753 2.24 4.06 6.72 5.227 18.107 10.5 35.98 15.82 53.62s10.687 35.513 16.1 53.62c0.56 2.053 1.167 3.78 1.82 5.18s1.633 2.613 2.94 3.64c1.307 1.027 2.987 1.773 5.04 2.24 2.053 0.467 4.667 0.7 7.84 0.7 5.973 0 10.033-1.073 12.18-3.22 2.147-2.147 3.687-4.993 4.62-8.54l31.36-107.52c1.307-4.293 2.707-6.44 4.2-6.44 1.493 0 2.613 2.147 3.36 6.44l13.44 101.08c0.933 6.533 2.473 11.247 4.62 14.14z m143.22 1.26c3.36 0 6.627-1.213 9.8-3.64 3.173-2.427 4.76-6.627 4.76-12.6 0-5.787-1.493-9.94-4.48-12.46-2.987-2.52-6.347-3.78-10.08-3.78h-54.88v-151.2c0-4.48-1.68-7.98-5.04-10.5-3.36-2.52-7.747-3.78-13.16-3.78-5.04 0-9.333 1.26-12.88 3.78-3.547 2.52-5.32 6.02-5.32 10.5v163.52c0 5.6 1.773 10.36 5.32 14.28 3.547 3.92 8.4 5.88 14.56 5.88h71.4z" fill="#FFFFFF" p-id="17914"></path></svg>