<?xml version="1.0" standalone="no"?><!DOCTYPE svg PUBLIC "-//W3C//DTD SVG 1.1//EN" "http://www.w3.org/Graphics/SVG/1.1/DTD/svg11.dtd"><svg t="1754316656900" class="icon" viewBox="0 0 1024 1024" version="1.1" xmlns="http://www.w3.org/2000/svg" p-id="11587" xmlns:xlink="http://www.w3.org/1999/xlink" width="200" height="200"><path d="M470.14912 11.7248c-73.69728 10.22976-136.93952 40.68352-188.78464 90.43968-50.67776 48.5888-82.5344 106.01472-97.64864 175.29856-7.20896 34.18112-7.20896 99.2768 0 133.44768 16.04608 74.3936 44.17536 122.99264 110.8992 191.3344 66.49856 67.8912 66.72384 68.82304 68.11648 138.79296l0.93184 49.52064H660.7872v-41.85088c0-73.00096 3.0208-79.04256 73.23648-151.12192 61.61408-63.232 90.43968-114.15552 106.25024-186.68544 7.20896-34.18112 7.20896-99.2768 0-133.44768-13.94688-64.1536-42.31168-118.09792-86.25152-163.8912C705.66912 63.10912 647.54688 30.5664 579.8912 16.384c-25.8048-5.59104-85.5552-7.91552-109.74208-4.6592zM574.7712 53.34016c88.576 20.224 163.67616 79.04256 204.35968 160.18432 43.93984 87.64416 39.29088 197.84704-12.09344 284.79488-16.27136 27.4432-29.2864 43.25376-70.20544 85.32992-20.45952 21.15584-41.15456 43.70432-46.0288 50.21696-19.52768 26.97216-27.19744 53.93408-27.19744 96.7168v27.43296H400.40448v-26.73664c0-41.61536-7.90528-71.3728-26.04032-97.1776-2.78528-4.18816-23.01952-25.8048-44.87168-48.128-64.16384-65.792-89.27232-104.84736-104.84736-164.59776-22.08768-85.0944-7.44448-171.34592 41.61536-244.5824 14.87872-22.3232 56.03328-63.46752 78.34624-78.34624C384.82944 71.4752 431.09376 54.272 479.44704 47.99488c18.37056-2.32448 76.032 0.93184 95.32416 5.34528z" fill="" p-id="11588"></path><path d="M474.79808 344.18688v148.79744h74.40384V195.38944h-74.40384v148.79744zM474.79808 604.57984v37.20192h74.40384v-74.40384h-74.40384v37.20192zM363.20256 846.36672v18.59584h297.59488v-37.19168H363.20256v18.59584zM363.20256 920.76032v18.59584h297.59488v-37.19168H363.20256v18.59584zM437.6064 995.16416V1013.76h148.7872v-37.19168h-148.7872v18.59584z" fill="" p-id="11589"></path></svg>