<?xml version="1.0" standalone="no"?><!DOCTYPE svg PUBLIC "-//W3C//DTD SVG 1.1//EN" "http://www.w3.org/Graphics/SVG/1.1/DTD/svg11.dtd"><svg t="1752480680689" class="icon" viewBox="0 0 1025 1024" version="1.1" xmlns="http://www.w3.org/2000/svg" p-id="17734" xmlns:xlink="http://www.w3.org/1999/xlink" width="200.1953125" height="200"><path d="M513.787216 517.867655m-480.192409 0a480.192409 480.192409 0 1 0 960.384818 0 480.192409 480.192409 0 1 0-960.384818 0Z" fill="#B8D9FF" p-id="17735"></path><path d="M164.314594 513.985571c0-247.692379 174.248521-451.540277 397.996656-477.366867a485.199853 485.199853 0 0 0-51.774622-2.825542C245.320219 33.79721 30.332075 248.789402 30.332075 513.985571c0 265.192121 214.971952 480.184313 480.200505 480.184313 17.483549 0 34.756599-0.987725 51.774622-2.813398-223.744087-25.830638-397.992608-229.674487-397.992608-477.370915z" fill="#FFFFFF" opacity=".21" p-id="17736"></path><path d="M513.787216 1014.252284c-273.709228 0-496.384628-222.679449-496.384628-496.384629S240.077988 21.483027 513.787216 21.483027c273.70518 0 496.384628 222.675401 496.384629 496.384628s-222.679449 496.384628-496.384629 496.384629z m0-960.384818c-255.84921 0-464.00019 208.146932-464.00019 464.000189s208.15098 464.00019 464.00019 464.00019 464.00019-208.15098 464.00019-464.00019-208.15098-464.00019-464.00019-464.000189z" fill="#6E6E96" p-id="17737"></path><path d="M519.215658 30.923091c-22.750068 0-45.083187 1.692087-66.987212 4.756464 233.459419 32.61113 413.184957 232.9777 413.184958 475.435945 0 242.462293-179.725539 442.832911-413.184958 475.431897a482.912702 482.912702 0 0 0 66.987212 4.760512c265.192121 0 480.184313-214.980048 480.184313-480.200505 0-265.188072-214.992192-480.184313-480.184313-480.184313z" fill="#6E6E96" opacity=".15" p-id="17738"></path><path d="M507.423674 46.742889s-101.990742 107.002234-101.990742 467.598911c-0.740794 140.694194 16.281277 384.156356 101.990742 469.865821 0 0-267.96099-60.473891-267.96099-469.857725 0-441.56587 267.96099-467.607007 267.96099-467.607007z" fill="#FFFFFF" opacity=".21" p-id="17739"></path><path d="M524.457889 1014.118698c-123.943343 0-221.03189-218.594961-221.031891-497.651669S400.514546 18.819407 524.457889 18.819407c123.931199 0 221.01165 218.594961 221.01165 497.647622S648.389088 1014.118698 524.457889 1014.118698z m0-962.914852c-102.257913 0-188.647452 213.065318-188.647452 465.263183 0 252.201913 86.389538 465.267231 188.647452 465.26723 102.245769 0 188.627211-213.065318 188.627211-465.26723 0-252.197864-86.381442-465.263183-188.627211-465.263183z" fill="#6E6E96" p-id="17740"></path><path d="M512.637569 700.102988c-130.128771 0-252.703871-18.119093-345.141204-51.013587-97.679563-34.764695-151.474164-83.114662-151.474164-136.152276s53.794601-101.387581 151.474164-136.148229c92.437332-32.894494 215.012433-51.013587 345.141204-51.013587 130.128771 0 252.703871 18.119093 345.141203 51.013587 97.683611 34.760647 151.478212 83.114662 151.478212 136.148229s-53.794601 101.387581-151.478212 136.152276c-92.437332 32.898542-215.012433 51.013587-345.141203 51.013587z m0-341.939192c-126.521954 0-245.243306 17.451164-334.284321 49.139338-82.584367 29.388878-129.950656 67.893976-129.950656 105.638039s47.36629 76.249161 129.950656 105.642087c89.041014 31.688173 207.758318 49.139338 334.284321 49.139338s245.243306-17.451164 334.28432-49.139338c82.584367-29.392926 129.950656-67.893976 129.950657-105.642087s-47.362242-76.249161-129.950657-105.638039c-89.041014-31.688173-207.758318-49.139338-334.28432-49.139338z" fill="#6E6E96" p-id="17741"></path><path d="M328.932792 355.730915m-61.14182 0a61.14182 61.14182 0 1 0 122.28364 0 61.14182 61.14182 0 1 0-122.28364 0Z" fill="#FFDFFE" p-id="17742"></path><path d="M328.932792 433.064955c-42.64221 0-77.33404-34.69183-77.33404-77.33404s34.69183-77.33404 77.33404-77.33404c42.64221 0 77.33404 34.69183 77.33404 77.33404s-34.69183 77.33404-77.33404 77.33404z m0-122.283641c-24.78624 0-44.949601 20.163361-44.949601 44.949601s20.163361 44.949601 44.949601 44.949601c24.78624 0 44.949601-20.163361 44.949601-44.949601S353.719032 310.781314 328.932792 310.781314z" fill="#6E6E96" p-id="17743"></path><path d="M718.999308 667.366369m-61.14182 0a61.14182 61.14182 0 1 0 122.28364 0 61.14182 61.14182 0 1 0-122.28364 0Z" fill="#FFDFFE" p-id="17744"></path><path d="M718.999308 744.700408c-42.64221 0-77.33404-34.687782-77.334039-77.334039s34.69183-77.33404 77.334039-77.33404 77.33404 34.69183 77.33404 77.33404-34.687782 77.33404-77.33404 77.334039z m0-122.28364c-24.78624 0-44.949601 20.163361-44.949601 44.949601 0 24.782192 20.163361 44.949601 44.949601 44.949601 24.782192 0 44.949601-20.163361 44.949601-44.949601 0-24.78624-20.163361-44.949601-44.949601-44.949601z" fill="#6E6E96" p-id="17745"></path><path d="M327.33381 677.122181m-61.14182 0a61.14182 61.14182 0 1 0 122.283641 0 61.14182 61.14182 0 1 0-122.283641 0Z" fill="#FFDFFE" p-id="17746"></path><path d="M327.33381 754.456221c-42.64221 0-77.33404-34.687782-77.334039-77.33404s34.69183-77.33404 77.334039-77.33404c42.64221 0 77.33404 34.69183 77.33404 77.33404s-34.69183 77.33404-77.33404 77.33404z m0-122.283641c-24.78624 0-44.949601 20.163361-44.949601 44.949601 0 24.782192 20.163361 44.949601 44.949601 44.949601 24.78624 0 44.949601-20.163361 44.949601-44.949601 0-24.78624-20.163361-44.949601-44.949601-44.949601z" fill="#6E6E96" p-id="17747"></path><path d="M717.958958 358.333814m-61.14182 0a61.14182 61.14182 0 1 0 122.28364 0 61.14182 61.14182 0 1 0-122.28364 0Z" fill="#FFDFFE" p-id="17748"></path><path d="M717.958958 435.667854c-42.64221 0-77.33404-34.69183-77.33404-77.33404s34.687782-77.33404 77.33404-77.334039 77.33404 34.69183 77.33404 77.334039-34.69183 77.33404-77.33404 77.33404z m0-122.283641c-24.782192 0-44.949601 20.163361-44.949601 44.949601s20.163361 44.949601 44.949601 44.949601c24.78624 0 44.949601-20.163361 44.949601-44.949601s-20.163361-44.949601-44.949601-44.949601z" fill="#6E6E96" p-id="17749"></path></svg>