<?xml version="1.0" standalone="no"?><!DOCTYPE svg PUBLIC "-//W3C//DTD SVG 1.1//EN" "http://www.w3.org/Graphics/SVG/1.1/DTD/svg11.dtd"><svg t="1752679621977" class="icon" viewBox="0 0 1024 1024" version="1.1" xmlns="http://www.w3.org/2000/svg" p-id="4453" xmlns:xlink="http://www.w3.org/1999/xlink" width="200" height="200"><path d="M931.507892 0A78.65427 78.65427 0 0 1 1010.162162 78.65427v314.644757a78.65427 78.65427 0 0 1-78.65427 78.65427H92.492108A78.65427 78.65427 0 0 1 13.837838 393.271351V78.65427A78.65427 78.65427 0 0 1 92.492108 0h839.015784z m0 55.351351H92.492108A23.302919 23.302919 0 0 0 69.189189 78.65427v314.644757c0 12.869189 10.43373 23.302919 23.302919 23.302919h839.015784A23.302919 23.302919 0 0 0 954.810811 393.271351V78.65427A23.302919 23.302919 0 0 0 931.507892 55.351351z m0 470.486487A78.65427 78.65427 0 0 1 1010.162162 604.492108v314.644757a78.65427 78.65427 0 0 1-78.65427 78.65427H92.492108A78.65427 78.65427 0 0 1 13.837838 919.109189V604.492108A78.65427 78.65427 0 0 1 92.492108 525.837838h839.015784z m0 55.351351H92.492108a23.302919 23.302919 0 0 0-23.302919 23.302919v314.644757c0 12.869189 10.43373 23.302919 23.302919 23.302919h839.015784A23.302919 23.302919 0 0 0 954.810811 919.109189V604.492108a23.302919 23.302919 0 0 0-23.302919-23.302919z" fill="#4D4A49" p-id="4454"></path><path d="M249.081081 305.235027a69.189189 69.189189 0 1 1 0-138.378378 69.189189 69.189189 0 0 1 0 138.378378z m0 525.754811a69.189189 69.189189 0 1 1 0-138.378379 69.189189 69.189189 0 0 1 0 138.378379z" fill="#F27233" p-id="4455"></path></svg>