<?xml version="1.0" standalone="no"?><!DOCTYPE svg PUBLIC "-//W3C//DTD SVG 1.1//EN" "http://www.w3.org/Graphics/SVG/1.1/DTD/svg11.dtd"><svg t="1752481336558" class="icon" viewBox="0 0 1024 1024" version="1.1" xmlns="http://www.w3.org/2000/svg" p-id="30346" xmlns:xlink="http://www.w3.org/1999/xlink" width="200" height="200"><path d="M322.743917 304.35226l-18.095018 375.84241a76.384705 76.384705 0 0 0 78.016223 74.159907h315.476245a76.236385 76.236385 0 0 0 77.867903-74.159907L757.914253 304.35226a76.236385 76.236385 0 0 0-78.016223-74.159908H400.463499a76.236385 76.236385 0 0 0-77.719582 74.159908z" fill="#FF8E68" p-id="30347"></path><path d="M405.951333 561.835458V750.498262h274.984936V561.835458zM304.797219 516.449594H237.311703c-8.899189 50.873696-10.234067 92.848204-1.186558 122.660487 14.831981 91.809965 43.161066 117.617613 84.097335 88.991889l-14.831982-53.246814zM781.793743 516.449594h68.227114c8.899189 50.873696 10.382387 92.848204 1.186559 122.660487-14.831981 91.809965-43.161066 117.617613-84.097335 88.991889l14.831982-53.246814z" fill="#FFDA6A" p-id="30348"></path><path d="M434.132097 421.228273v59.327926a11.568946 11.568946 0 0 0 11.568946 11.420626h37.079954a11.568946 11.568946 0 0 0 11.568945-11.420626v-59.327926a11.420626 11.420626 0 0 0-11.568945-11.420625h-37.079954a11.420626 11.420626 0 0 0-11.568946 11.420625zM591.202781 421.228273v59.327926a11.568946 11.568946 0 0 0 11.568946 11.420626h37.079953a11.568946 11.568946 0 0 0 11.568946-11.420626v-59.327926a11.420626 11.420626 0 0 0-11.568946-11.420625h-37.079953a11.420626 11.420626 0 0 0-11.568946 11.420625z" fill="#DFDFDF" p-id="30349"></path><path d="M382.071842 768.593279a94.034762 94.034762 0 0 1-51.170336-14.831981l-6.674391-5.191194-10.827347 4.894554a57.399768 57.399768 0 0 1-59.327926-12.162225h-0.741599c-17.205098-16.31518-28.180765-54.136732-33.371958-93.293163a453.265353 453.265353 0 0 1 2.521437-136.899189 14.831981 14.831981 0 0 1 13.942062-11.420626h62.442642l9.640788-196.078795 1.779838-17.205098A91.216686 91.216686 0 0 1 400.463499 216.10197h44.495945v-28.477405a48.797219 48.797219 0 0 1 46.572422-49.538818h97.891077a45.534183 45.534183 0 0 1 35.003476 16.31518 55.323291 55.323291 0 0 1 13.348784 35.300116v26.400927h42.122827a91.068366 91.068366 0 0 1 90.178447 70.303592l1.186559 17.205098 9.640788 196.078795h68.968714a14.831981 14.831981 0 0 1 13.942062 11.420626 448.3708 448.3708 0 0 1 2.818077 136.15759c-5.191194 39.008111-16.01854 76.977984-33.371959 93.293163A61.256083 61.256083 0 0 1 792.02781 756.431054a61.849363 61.849363 0 0 1-19.429896-3.707995l-14.831981-6.674392-9.047509 6.822712a92.996524 92.996524 0 0 1-51.170336 14.831981z m1.928158-28.477404v-143.7219A48.797219 48.797219 0 0 1 430.127462 546.855156h222.479722a49.390498 49.390498 0 0 1 47.462341 51.615296v141.497103l9.344148-0.889919a62.294322 62.294322 0 0 0 51.022016-47.017381l1.186559-11.717265-18.539977-375.694091a59.327926 59.327926 0 0 0-18.391657-42.419467l-5.932792-4.597914V398.683662a68.375435 68.375435 0 0 1-11.272306 40.04635 58.141367 58.141367 0 0 1-37.228274 22.692931h-5.932792v17.946698a25.659328 25.659328 0 0 1-25.659328 25.807648h-37.079954a25.807648 25.807648 0 0 1-25.807648-25.807648v-16.31518h-68.672074v16.908459a25.807648 25.807648 0 0 1-25.807648 25.807648H444.959444a25.807648 25.807648 0 0 1-25.807648-25.807648v-18.095017h-2.521437a50.725377 50.725377 0 0 1-33.520278-21.209734 82.910776 82.910776 0 0 1-12.310544-48.500579V252.143685l-5.784473 3.114716a59.327926 59.327926 0 0 0-27.735806 49.538818l-18.984936 375.545771 1.334878 11.717265a62.887601 62.887601 0 0 0 62.442642 48.05562z m287.443801 0v-141.645423A20.913094 20.913094 0 0 0 652.607184 575.184241H430.127462a21.061414 21.061414 0 0 0-18.243337 21.209734v143.7219z m-378.067208-11.568946l10.530707-2.076477-6.526072-11.568946a85.135574 85.135574 0 0 1-7.41599-34.706836l7.41599-152.17613h-49.093858v4.301275a430.127462 430.127462 0 0 0 0 111.239861 277.358053 277.358053 0 0 0 10.975666 50.132097 77.422943 77.422943 0 0 0 12.162225 24.472769l1.186558 1.334879 2.966397 2.373117a29.663963 29.663963 0 0 0 17.798377 6.674391z m499.096176 0a29.663963 29.663963 0 0 0 18.688297-6.674391l2.966396-2.373117 1.186559-1.334879a74.159907 74.159907 0 0 0 12.162225-24.472769 265.195829 265.195829 0 0 0 10.975666-50.132097 430.127462 430.127462 0 0 0 0-111.239861v-4.301275h-56.21321l7.564311 151.87949a82.465817 82.465817 0 0 1-7.564311 34.706837l-5.339513 9.640788 4.894554 2.224797a34.558517 34.558517 0 0 0 10.679026 2.076477z m-343.80533-103.82387a14.831981 14.831981 0 1 1 0-28.329084h181.988413a14.831981 14.831981 0 1 1 0 28.329084z m29.663963-146.984936v-53.395133h-31.59212v53.395133z m157.663963 0v-53.395133h-31.443801v53.395133z m-60.217845-42.567787v-13.942063a25.659328 25.659328 0 0 1 25.807648-25.659327h37.079954a25.511008 25.511008 0 0 1 25.659328 25.659327v12.458865a46.127462 46.127462 0 0 0 9.047508-2.966396 24.769409 24.769409 0 0 0 10.530707-8.45423 41.232908 41.232908 0 0 0 5.932793-26.845886V245.320973l-10.975667-0.889919h-280.324449v148.319815a55.91657 55.91657 0 0 0 7.119351 32.03708 20.319815 20.319815 0 0 0 8.750869 7.267671l4.004635 1.334878v-12.162225A25.659328 25.659328 0 0 1 444.959444 395.568946h37.079953a25.659328 25.659328 0 0 1 25.807648 25.659327v13.497104z m32.926999-218.623407v-26.845886a25.659328 25.659328 0 0 0-5.932792-16.908459 16.16686 16.16686 0 0 0-13.200464-6.377752h-97.891078a20.913094 20.913094 0 0 0-18.243337 21.209733v28.477405z" fill="#333333" p-id="30350"></path></svg>