<?xml version="1.0" standalone="no"?><!DOCTYPE svg PUBLIC "-//W3C//DTD SVG 1.1//EN" "http://www.w3.org/Graphics/SVG/1.1/DTD/svg11.dtd"><svg t="1747492465257" class="icon" viewBox="0 0 1024 1024" version="1.1" xmlns="http://www.w3.org/2000/svg" p-id="12853" xmlns:xlink="http://www.w3.org/1999/xlink" width="200" height="200"><path d="M185.6 819.2A76.8 76.8 0 0 0 262.4 896h499.2a76.8 76.8 0 0 0 76.8-76.8V351.808a76.8 76.8 0 0 0-22.496-54.304l-147.008-147.008A76.8 76.8 0 0 0 614.592 128H262.4a76.8 76.8 0 0 0-76.8 76.8v614.4z" fill="#697DB9" p-id="12854"></path><path d="M422.4 492.8l-64 230.4h51.68l37.056-160.096h1.856L489.92 723.2h44.288l40.704-160.416h1.952l37.056 160.416H665.6l-64.064-230.4h-46.08l-42.656 150.624h-1.728L468.544 492.8z" fill="#FFFFFF" p-id="12855"></path><path d="M608 128v153.6a76.8 76.8 0 0 0 76.8 76.8h153.6v-6.592a76.8 76.8 0 0 0-22.496-54.304l-147.008-147.008A76.8 76.8 0 0 0 614.592 128H608z" fill="#3F5289" p-id="12856"></path></svg>