<?xml version="1.0" standalone="no"?><!DOCTYPE svg PUBLIC "-//W3C//DTD SVG 1.1//EN" "http://www.w3.org/Graphics/SVG/1.1/DTD/svg11.dtd"><svg t="1753258929277" class="icon" viewBox="0 0 1024 1024" version="1.1" xmlns="http://www.w3.org/2000/svg" p-id="11195" xmlns:xlink="http://www.w3.org/1999/xlink" width="200" height="200"><path d="M877.283556 218.368l-289.678223-156.728889A159.118222 159.118222 0 0 0 512 42.666667c-26.538667 0-52.622222 6.542222-75.605333 18.972444L146.716444 218.368A146.830222 146.830222 0 0 0 91.363556 270.222222a134.883556 134.883556 0 0 0-20.252445 70.826667v313.457778c0 24.860444 6.968889 49.294222 20.252445 70.826666a146.773333 146.773333 0 0 0 55.352888 51.854223l289.678223 156.728888c18.033778 9.756444 38.030222 15.928889 58.709333 18.090667a160.711111 160.711111 0 0 0 92.529778-18.090667l289.649778-156.728888a146.801778 146.801778 0 0 0 55.352888-51.854223 134.883556 134.883556 0 0 0 20.252445-70.826666V341.048889c0-24.860444-6.997333-49.294222-20.252445-70.826667a146.858667 146.858667 0 0 0-55.352888-51.854222zM175.786667 730.083556a90.624 90.624 0 0 1-34.019556-31.943112 83.256889 83.256889 0 0 1-12.515555-43.548444V341.048889a83.256889 83.256889 0 0 1 12.515555-43.548445c8.163556-13.255111 19.911111-24.263111 34.019556-31.914666l289.678222-156.757334A97.905778 97.905778 0 0 1 512 97.166222c16.327111 0 32.398222 3.982222 46.535111 11.662222l289.678222 156.728889 0.398223 0.199111c19.342222 10.609778 19.000889 36.977778-0.398223 47.445334l-295.765333 170.183111c-29.184 20.252444-44.515556 38.200889-44.515556 74.154667l-0.455111 306.545777c0 19.996444-23.04 32.824889-41.614222 22.897778l-0.398222-0.199111-289.678222-156.728889z" fill="#86A0BF" p-id="11196"></path><path d="M413.809778 796.501333l-180.195556-97.507555c-14.222222-7.68-26.055111-18.773333-34.275555-32.113778-8.248889-13.340444-12.544-28.444444-12.544-43.861333v-207.075556c0-3.811556 1.052444-7.566222 3.100444-10.837333a22.471111 22.471111 0 0 1 8.476445-7.964445 24.376889 24.376889 0 0 1 23.125333 0l215.466667 116.622223a22.471111 22.471111 0 0 1 8.476444 7.936 20.650667 20.650667 0 0 1 3.100444 10.808888v245.191112a20.650667 20.650667 0 0 1-3.128888 10.808888 22.471111 22.471111 0 0 1-8.448 7.964445 24.348444 24.348444 0 0 1-23.153778 0z" fill="#479CFF" p-id="11197"></path><path d="M267.093333 313.543111l209.123556 113.208889c10.524444 5.688889 22.471111 8.675556 34.588444 8.675556 12.145778 0 24.064-2.986667 34.588445-8.675556l209.180444-113.095111a26.965333 26.965333 0 0 0 10.154667-9.500445 24.746667 24.746667 0 0 0 0-25.998222 26.965333 26.965333 0 0 0-10.154667-9.528889l-215.978666-116.849777a58.453333 58.453333 0 0 0-27.761778-6.968889c-9.756444 0-19.342222 2.417778-27.761778 6.968889L267.093333 268.544a26.936889 26.936889 0 0 0-10.154666 9.500444 24.746667 24.746667 0 0 0 0 25.998223 26.936889 26.936889 0 0 0 10.126222 9.500444z" fill="#86A0BF" p-id="11198"></path></svg>