<?xml version="1.0" standalone="no"?><!DOCTYPE svg PUBLIC "-//W3C//DTD SVG 1.1//EN" "http://www.w3.org/Graphics/SVG/1.1/DTD/svg11.dtd"><svg t="1753080579227" class="icon" viewBox="0 0 1024 1024" version="1.1" xmlns="http://www.w3.org/2000/svg" p-id="6968" xmlns:xlink="http://www.w3.org/1999/xlink" width="200" height="200"><path d="M512 960A448 448 0 1 1 512 64a448 448 0 0 1 0 896z m0-195.968c16.64 0 30.08-5.376 40.448-16.128a55.296 55.296 0 0 0 15.552-39.936 52.48 52.48 0 0 0-15.552-39.04 60.672 60.672 0 0 0-40.448-16.96c-21.76 1.088-37.888 10.816-48.192 29.184a52.992 52.992 0 0 0 0 55.232c10.304 18.432 26.432 27.648 48.192 27.648z m42.88-182.976c0-3.2-1.088-12.416-0.96-11.136a47.68 47.68 0 0 1 6.784-32c4.608-7.296 11.84-14.144 22.592-20.48 63.232-37.376 86.4-78.976 85.056-122.24-1.984-64.896-49.728-128.512-153.344-129.472-86.592-0.832-143.552 41.024-156.992 119.552a41.984 41.984 0 0 0 82.752 14.208c6.144-35.52 26.048-50.176 73.472-49.792 51.968 0.512 69.44 23.68 70.144 48a20.16 20.16 0 0 1-3.2 11.712c-5.76 10.432-18.368 22.528-40.576 35.648a148.16 148.16 0 0 0-50.816 47.744c-18.432 28.992-22.4 57.664-19.328 86.848 0.512 4.352 0.448 3.84 0.448 1.408a41.984 41.984 0 1 0 83.968 0z" fill="#BEC9D5" p-id="6969"></path></svg>