<?xml version="1.0" standalone="no"?><!DOCTYPE svg PUBLIC "-//W3C//DTD SVG 1.1//EN" "http://www.w3.org/Graphics/SVG/1.1/DTD/svg11.dtd"><svg t="1753258878152" class="icon" viewBox="0 0 1024 1024" version="1.1" xmlns="http://www.w3.org/2000/svg" p-id="6336" xmlns:xlink="http://www.w3.org/1999/xlink" width="200" height="200"><path d="M848.979592 386.612245h-21.420408c-1.044898 0-2.089796-0.522449-2.612245-2.089796-0.522449-1.044898-1.044898-2.612245-1.567347-3.657143-0.522449-1.044898 0-2.089796 0.522449-2.612245l15.673469-16.195918c15.673469-15.673469 24.555102-37.093878 24.555102-59.036735 0-22.465306-8.881633-43.363265-24.555102-59.036735l-59.036734-59.036734c-32.391837-32.391837-85.681633-32.391837-118.07347-0.522449l-16.718367 16.195918c-1.044898 1.044898-2.089796 1.044898-3.134694 0.522449-1.044898-0.522449-2.612245-1.044898-3.657143-1.567347-1.044898-0.522449-2.089796-1.567347-2.089796-2.612245v-21.420408c0-44.408163-36.571429-80.979592-80.979592-80.979592h-83.591836C425.273469 94.040816 386.612245 132.702041 386.612245 180.244898v17.763265c0 1.044898-0.522449 2.089796-1.567347 2.612245h-0.522449c-1.044898 0.522449-2.089796 0-3.134694-0.522449l-15.15102-15.673469c-15.673469-15.673469-36.571429-24.555102-59.036735-24.555102-22.465306 0-43.363265 8.881633-59.036735 24.555102L189.126531 243.461224C156.734694 275.853061 156.734694 329.142857 189.126531 361.534694l16.195918 16.718367c1.044898 1.044898 1.044898 2.089796 0.522449 3.134694-0.522449 1.044898-1.044898 2.612245-1.567347 3.657143-0.522449 1.044898-1.567347 1.567347-2.612245 1.567347h-21.420408C132.702041 386.612245 94.040816 425.273469 94.040816 472.816327v78.367346c0 47.542857 38.661224 86.204082 86.204082 86.204082h22.987755c1.044898 0 2.089796 0.522449 2.612245 1.567347v0.522449c0.522449 1.044898 0 2.089796-0.522449 3.134694l-15.673469 15.15102c-32.391837 32.391837-32.391837 85.159184 0 118.07347l59.036734 59.036734c15.673469 15.673469 36.571429 24.555102 59.036735 24.555102 22.465306 0 43.363265-8.881633 59.559184-25.077551l14.628571-15.15102c0.522449-1.044898 2.089796-1.044898 3.134694-0.522449h0.522449c1.044898 0.522449 1.567347 1.567347 1.567347 2.612245v22.987755c0 47.542857 38.661224 86.204082 86.204082 86.204082h83.591836c44.408163 0 80.979592-36.571429 80.979592-80.979592v-26.644898c0-1.044898 0.522449-2.089796 2.089796-2.612245 1.044898-0.522449 2.612245-1.044898 3.657143-1.567347 1.044898-0.522449 2.089796 0 2.612245 0.522449l16.195918 15.673469c15.673469 15.673469 37.093878 24.555102 59.036735 24.555102s43.363265-8.881633 59.036735-24.555102l59.036734-59.036734c15.673469-15.673469 24.555102-36.571429 24.555102-59.036735 0-22.465306-8.881633-43.363265-24.555102-59.559184l-15.15102-14.628571c-1.044898-1.044898-1.044898-2.089796-0.522449-3.657143 0.522449-1.044898 1.567347-1.567347 2.612245-1.567347h22.987755c44.408163 0 80.979592-36.571429 80.979592-80.979592v-88.816326C929.959184 423.183673 893.387755 386.612245 848.979592 386.612245z m-339.591837 237.714286c-60.604082 0-109.714286-49.110204-109.714286-109.714286s49.110204-109.714286 109.714286-109.714286 109.714286 49.110204 109.714286 109.714286-49.110204 109.714286-109.714286 109.714286z" fill="#568289" p-id="6337"></path><path d="M512 360.489796c-83.591837 0-151.510204 67.918367-151.510204 151.510204s67.918367 151.510204 151.510204 151.510204 151.510204-67.918367 151.510204-151.510204-67.918367-151.510204-151.510204-151.510204z m0 261.22449c-60.604082 0-109.714286-49.110204-109.714286-109.714286s49.110204-109.714286 109.714286-109.714286 109.714286 49.110204 109.714286 109.714286-49.110204 109.714286-109.714286 109.714286z" fill="#245156" p-id="6338"></path></svg>