<?xml version="1.0" standalone="no"?><!DOCTYPE svg PUBLIC "-//W3C//DTD SVG 1.1//EN" "http://www.w3.org/Graphics/SVG/1.1/DTD/svg11.dtd"><svg t="1754646167397" class="icon" viewBox="0 0 1024 1024" version="1.1" xmlns="http://www.w3.org/2000/svg" p-id="4339" xmlns:xlink="http://www.w3.org/1999/xlink" width="200" height="200"><path d="M512 80l1.6 0.04A32 32 0 0 1 512 144c-203.24 0-368 164.76-368 368s164.76 368 368 368 368-164.76 368-368l0.04-1.6A32 32 0 0 1 944 512c0 238.584-193.416 432-432 432S80 750.584 80 512s193.416-432 432-432z m392 0c1.36 0 2.696 0.08 4 0.248A32.008 32.008 0 0 1 944 112v192a32 32 0 1 1-64 0V193.248L559.632 513.624a32 32 0 0 1-43.976 1.2l-1.28-1.2a32 32 0 0 1 0-45.256L838.736 144H712a32 32 0 1 1 0-64h192z" p-id="4340"></path></svg>