<?xml version="1.0" standalone="no"?><!DOCTYPE svg PUBLIC "-//W3C//DTD SVG 1.1//EN" "http://www.w3.org/Graphics/SVG/1.1/DTD/svg11.dtd"><svg t="1754142205986" class="icon" viewBox="0 0 1024 1024" version="1.1" xmlns="http://www.w3.org/2000/svg" p-id="13725" xmlns:xlink="http://www.w3.org/1999/xlink" width="200" height="200"><path d="M896 149.333333h-249.799111c-23.665778 0-47.104 4.721778-68.892445 13.880889-10.524444 4.551111-20.593778 10.012444-30.151111 16.384a157.013333 157.013333 0 0 0-25.998222 21.333334A199.566222 199.566222 0 0 0 512 210.773333a199.566222 199.566222 0 0 0-9.159111-9.841777 157.013333 157.013333 0 0 0-26.055111-21.333334 187.335111 187.335111 0 0 0-30.037334-16.384 179.427556 179.427556 0 0 0-68.949333-13.880889H128a85.333333 85.333333 0 0 0-85.333333 85.333334v129.080889a42.666667 42.666667 0 0 0 85.333333 0V234.666667h249.799111a91.306667 91.306667 0 0 1 35.669333 7.224889 93.013333 93.013333 0 0 1 40.334223 33.052444 91.306667 91.306667 0 0 1 13.653333 32.711111c1.251556 6.087111 1.877333 12.288 1.877333 18.545778V469.333333a42.666667 42.666667 0 0 0 85.333334 0V326.200889a91.306667 91.306667 0 0 1 7.281777-35.669333c2.275556-5.404444 5.006222-10.638222 8.305778-15.530667 6.769778-9.671111 15.132444-17.976889 24.746667-24.746667a91.306667 91.306667 0 0 1 32.654222-13.653333c6.087111-1.308444 12.288-1.934222 18.545778-1.934222h249.799111v510.691555H597.333333a42.666667 42.666667 0 0 0-34.133333 16.896 58.197333 58.197333 0 0 1-10.012444 10.695111 40.049778 40.049778 0 0 1-5.973334 4.437334 36.181333 36.181333 0 0 1-6.200889 3.640889 36.977778 36.977778 0 0 1-6.599111 2.958222l-7.054222 2.332444-7.224889 1.308445a61.44 61.44 0 0 1-15.36 0l-7.281778-1.308445-6.826666-1.024-6.599111-2.787555a112.355556 112.355556 0 0 1-12.174223-8.135111l-5.347555-5.12a62.293333 62.293333 0 0 1-4.664889-5.688889 42.666667 42.666667 0 0 0-35.214222-16.896H128V554.666667a42.666667 42.666667 0 0 0-85.333333 0v192a85.333333 85.333333 0 0 0 85.333333 85.333333h280.120889l8.078222 7.452444c4.266667 3.640889 8.760889 6.997333 13.482667 10.012445 4.664889 3.242667 9.614222 6.200889 14.677333 8.760889a136.704 136.704 0 0 0 32.199111 12.174222c5.688889 1.479111 11.491556 2.56 17.294222 3.185778 6.030222 0.682667 12.117333 1.024 18.147556 1.080889 5.973333 0.341333 11.946667 0.341333 17.92 0a120.035556 120.035556 0 0 0 17.521778-3.185778q8.533333-2.389333 16.611555-5.12c5.347556-2.161778 10.695111-4.494222 15.815111-7.054222 4.949333-2.616889 9.841778-5.575111 14.506667-8.760889 4.664889-3.015111 9.159111-6.371556 13.425778-10.012445l8.078222-7.452444h280.120889a85.333333 85.333333 0 0 0 85.333333-85.333333V234.666667a85.333333 85.333333 0 0 0-85.333333-85.333334z" p-id="13726"></path></svg>