<?xml version="1.0" standalone="no"?><!DOCTYPE svg PUBLIC "-//W3C//DTD SVG 1.1//EN" "http://www.w3.org/Graphics/SVG/1.1/DTD/svg11.dtd"><svg t="1754110299768" class="icon" viewBox="0 0 1024 1024" version="1.1" xmlns="http://www.w3.org/2000/svg" p-id="3549" xmlns:xlink="http://www.w3.org/1999/xlink" width="200" height="200"><path d="M638.72 893.3888a144.0256 144.0256 0 0 1-80.64-26.4192 156.7744 156.7744 0 0 1-21.1968-98.7648V218.4704c0-7.8336 6.4-14.1312 14.336-14.1312h89.344c80.1792 0 85.248 10.9056 110.592 33.2288 25.344 22.3232 39.6288 32.3072 53.9136 103.3216 1.536 6.6048 7.424 11.3152 14.2848 11.3664h5.5296a13.9264 13.9264 0 0 0 10.4448-4.1472 13.568 13.568 0 0 0 3.84-10.3936V102.4H68.7104a14.1824 14.1824 0 0 0-14.2848 13.6704L51.2 336.7424a14.4896 14.4896 0 0 0 4.1472 10.6496 14.848 14.848 0 0 0 10.5984 4.4032h5.5296a15.1552 15.1552 0 0 0 14.336-11.3664C101.888 269.824 113.8176 258.9696 143.36 238.9504c24.8832-21.8624 30.4128-32.768 110.1312-32.768h88.064a14.336 14.336 0 0 1 10.0352 4.096 14.0288 14.0288 0 0 1 4.1984 9.984v530.2272c0 60.672-6.912 97.0752-20.736 109.2096v2.304c-18.944 20.8384-46.2848 32.3584-74.6496 31.3856a13.8752 13.8752 0 0 0-9.6256 4.3008 13.568 13.568 0 0 0-3.7376 9.7792c0 7.8336 6.4 14.1312 14.336 14.1312h378.2656a14.1824 14.1824 0 0 0 14.336-14.1312 13.1072 13.1072 0 0 0-3.4816-9.728 13.4144 13.4144 0 0 0-9.472-4.352M972.8 673.1264V572.928h-330.8544a6.4 6.4 0 0 0-5.9904 5.9392v93.696a5.888 5.888 0 0 0 1.5872 4.5056 6.0416 6.0416 0 0 0 4.4032 1.8944 6.912 6.912 0 0 0 6.4512-5.0176c5.9904-29.5424 11.0592-34.56 23.04-45.4656 10.5984-9.1136 13.3632-14.1312 46.08-14.1312h38.2464c3.328 0 5.9904 2.6624 5.9904 5.9392v227.5328c0 26.112-2.7648 41.2672-8.2944 45.5168a43.5712 43.5712 0 0 1-32.256 13.2096 5.9392 5.9392 0 0 0-5.5296 5.888c0 1.536 0.6144 3.072 1.7408 4.1984a6.0416 6.0416 0 0 0 4.2496 1.7408h163.584a5.9392 5.9392 0 0 0 5.9904-5.9392 5.9392 5.9392 0 0 0-5.9904-5.888 57.6 57.6 0 0 1-34.0992-11.4176 64 64 0 0 1-9.216-41.8304V622.592c0-1.536 0.6144-3.072 1.7408-4.1984a6.0416 6.0416 0 0 1 4.2496-1.7408h38.2464c34.56 0 36.4032 4.608 46.08 14.1312 9.6768 9.5744 16.5888 13.6704 23.04 45.5168a5.9904 5.9904 0 0 0 5.9904 5.0176h2.304c3.584 0 6.4512-2.8672 6.4512-6.4" fill="#5E6C84" p-id="3550"></path></svg>