<?xml version="1.0" standalone="no"?><!DOCTYPE svg PUBLIC "-//W3C//DTD SVG 1.1//EN" "http://www.w3.org/Graphics/SVG/1.1/DTD/svg11.dtd"><svg t="1752481261756" class="icon" viewBox="0 0 1024 1024" version="1.1" xmlns="http://www.w3.org/2000/svg" p-id="26826" xmlns:xlink="http://www.w3.org/1999/xlink" width="200" height="200"><path d="M704.426667 156.202667l2.176 2.346666a42.666667 42.666667 0 0 1-2.154667 58.005334l-66.602667 66.581333a21.333333 21.333333 0 0 0 0 30.165333l72.853334 72.853334a21.333333 21.333333 0 0 0 30.165333 0l66.581333-66.602667a42.666667 42.666667 0 0 1 60.352 0c83.306667 83.306667 61.973333 197.056-21.333333 280.362667-67.562667 67.562667-169.130667 80.341333-249.557333 38.357333l-233.173334 233.173333a149.333333 149.333333 0 0 1-211.2-211.2l233.173334-233.173333c-41.066667-78.741333-29.674667-177.749333 34.197333-245.248l4.181333-4.266667c83.306667-83.328 197.056-104.661333 280.362667-21.333333zM256 725.333333a42.666667 42.666667 0 1 0 0 85.333334 42.666667 42.666667 0 0 0 0-85.333334z" fill="#5F6A7A" p-id="26827"></path></svg>