<?xml version="1.0" standalone="no"?><!DOCTYPE svg PUBLIC "-//W3C//DTD SVG 1.1//EN" "http://www.w3.org/Graphics/SVG/1.1/DTD/svg11.dtd"><svg t="1753586266103" class="icon" viewBox="0 0 1024 1024" version="1.1" xmlns="http://www.w3.org/2000/svg" p-id="3399" xmlns:xlink="http://www.w3.org/1999/xlink" width="200" height="200"><path d="M919.876267 140.8c0-12.8-2.56-25.6-10.205867-32.017067a32.8704 32.8704 0 0 0-25.4976-12.765866c-99.396267-3.208533-198.826667 0-298.257067 0V0h-56.081066C387.054933 32.017067 246.869333 64 104.0896 96.017067v832c140.219733 31.982933 282.965333 60.757333 423.185067 95.982933h58.641066v-96.017067h277.845334c15.325867 0 33.1776 0 45.909333-12.8 10.205867-22.391467 7.645867-47.991467 10.205867-73.591466V140.8zM496.6912 358.4v83.217067h-119.808v303.991466H292.744533v-304.0256H175.428267V336.042667h321.194666v22.391466z m362.018133 483.191467h-272.7936V192h272.7936v649.591467z" fill="#7A85B0" p-id="3400"></path><path d="M647.936 325.802667h148.343467v80.6912h-148.343467V325.802667z m0 164.590933h148.343467v80.6912h-148.343467v-80.6912z m0 158.139733h148.343467v80.6912h-148.343467V648.533333z" fill="#7A85B0" p-id="3401"></path></svg>