<?xml version="1.0" standalone="no"?><!DOCTYPE svg PUBLIC "-//W3C//DTD SVG 1.1//EN" "http://www.w3.org/Graphics/SVG/1.1/DTD/svg11.dtd"><svg t="1753582030416" class="icon" viewBox="0 0 1024 1024" version="1.1" xmlns="http://www.w3.org/2000/svg" p-id="1682" xmlns:xlink="http://www.w3.org/1999/xlink" width="200" height="200"><path d="M95.9 376.5h830.4v269.9H95.9z" fill="#F95F5D" p-id="1683"></path><path d="M921.8 376.5v-215c0-26.7-23.7-50.4-51.9-50.4H147.8c-28.2 0-51.9 23.7-51.9 50.4v215h825.9z m0 0" fill="#55C7F7" p-id="1684"></path><path d="M95.9 646.4v215c0 26.7 23.7 50.4 51.9 50.4h728.1c28.2 0 51.9-23.7 51.9-50.4v-215H95.9z m0 0" fill="#7ECF3B" p-id="1685"></path><path d="M420.6 111.1H606v800.7H420.6z" fill="#FDAF42" p-id="1686"></path><path d="M606 458.1v112.7H411.7V458.1H606m31.1-46H380.6c-4.4 0-11.9 4.4-11.9 11.9v179.4c0 4.4 4.5 11.9 11.9 11.9h256.5c4.5 0 11.9-4.5 11.9-11.9V424c-3-8.9-7.4-11.9-11.9-11.9z m0 0" fill="#FFFFFF" p-id="1687"></path></svg>