<?xml version="1.0" standalone="no"?><!DOCTYPE svg PUBLIC "-//W3C//DTD SVG 1.1//EN" "http://www.w3.org/Graphics/SVG/1.1/DTD/svg11.dtd"><svg t="1744621873936" class="icon" viewBox="0 0 1024 1024" version="1.1" xmlns="http://www.w3.org/2000/svg" p-id="8801" xmlns:xlink="http://www.w3.org/1999/xlink" width="200" height="200"><path d="M345.6 367.7c0 19.2 15.6 34.8 34.8 34.8 19.2 0 34.8-15.6 34.8-34.8 0-19.2-15.6-34.8-34.8-34.8-19.2 0.1-34.8 15.6-34.8 34.8z m0 0M600.7 367.7c0 19.2 15.6 34.8 34.8 34.8 19.2 0 34.8-15.6 34.8-34.8 0-19.2-15.6-34.8-34.8-34.8-19.2 0.1-34.8 15.6-34.8 34.8z m0 0" fill="#666666" p-id="8802"></path><path d="M821 390.3c-11-13.9-22.7-23.6-34.8-29V87.5c0-9.4-5.7-17.8-14.3-21.4-8.7-3.6-18.6-1.6-25.3 5.1L652.8 165c-42.2-25.8-91.8-40.6-144.9-40.6-53.7 0-103.9 15.2-146.4 41.6l-92.1-94c-6.6-6.7-16.6-8.8-25.3-5.2-8.7 3.6-14.4 12-14.4 21.5v273c-12.1 5.4-23.8 15.1-34.8 29-35.9 45.6-58 129.8-58 220.9s22.1 175.3 58 220.9c29 36.9 63.5 43.9 94.6 21.1 51 64.5 129.8 105.8 218.4 105.8s167.4-41.4 218.4-105.8c31.1 22.8 65.6 15.8 94.6-21.1 35.9-45.6 58-129.8 58-220.9S856.8 435.9 821 390.3z m-440.6 70.2c-51.2 0-92.7-41.5-92.7-92.7s41.5-92.8 92.7-92.8 92.7 41.5 92.7 92.8c0.1 51.2-41.5 92.7-92.7 92.7zM507.9 588l-46.4-92.7c0-16.7 92.7-16.7 92.7 0L507.9 588z m127.6-127.5c-51.2 0-92.7-41.5-92.7-92.7s41.5-92.8 92.7-92.8 92.7 41.5 92.7 92.8c0 51.2-41.5 92.7-92.7 92.7z" fill="#7950F2" p-id="8803"></path></svg>